<mxfile host="app.diagrams.net" modified="2023-09-04T10:36:48.630Z" agent="Mozilla/5.0 (Macintosh; Intel Mac OS X 10_15_7) AppleWebKit/537.36 (KHTML, like Gecko) Chrome/116.0.0.0 Safari/537.36" etag="63Jrzqqe8XT4UXqBOcPh" version="21.3.2" type="github">
  <diagram name="Page-1" id="13e1069c-82ec-6db2-03f1-153e76fe0fe0">
    <mxGraphModel dx="1243" dy="900" grid="1" gridSize="10" guides="1" tooltips="1" connect="1" arrows="1" fold="1" page="1" pageScale="1" pageWidth="1100" pageHeight="850" background="none" math="0" shadow="0">
      <root>
        <mxCell id="0" />
        <mxCell id="1" parent="0" />
        <mxCell id="7baba1c4bc27f4b0-2" value="Add Project Element Dialog" style="shape=umlLifeline;perimeter=lifelinePerimeter;whiteSpace=wrap;html=1;container=1;collapsible=0;recursiveResize=0;outlineConnect=0;rounded=1;shadow=0;comic=0;labelBackgroundColor=none;strokeWidth=1;fontFamily=Verdana;fontSize=12;align=center;" parent="1" vertex="1">
          <mxGeometry x="240" y="80" width="100" height="580" as="geometry" />
        </mxCell>
        <mxCell id="lvILhVq2ATBaAnElhLMV-4" style="edgeStyle=orthogonalEdgeStyle;rounded=0;orthogonalLoop=1;jettySize=auto;html=1;" edge="1" parent="7baba1c4bc27f4b0-2" source="7baba1c4bc27f4b0-10" target="7baba1c4bc27f4b0-2">
          <mxGeometry relative="1" as="geometry">
            <Array as="points">
              <mxPoint x="50" y="360" />
              <mxPoint x="50" y="360" />
            </Array>
          </mxGeometry>
        </mxCell>
        <mxCell id="7baba1c4bc27f4b0-10" value="" style="html=1;points=[];perimeter=orthogonalPerimeter;rounded=0;shadow=0;comic=0;labelBackgroundColor=none;strokeWidth=1;fontFamily=Verdana;fontSize=12;align=center;" parent="7baba1c4bc27f4b0-2" vertex="1">
          <mxGeometry x="45" y="100" width="10" height="460" as="geometry" />
        </mxCell>
        <mxCell id="7baba1c4bc27f4b0-3" value="Project Plan Input" style="shape=umlLifeline;perimeter=lifelinePerimeter;whiteSpace=wrap;html=1;container=1;collapsible=0;recursiveResize=0;outlineConnect=0;rounded=1;shadow=0;comic=0;labelBackgroundColor=none;strokeWidth=1;fontFamily=Verdana;fontSize=12;align=center;" parent="1" vertex="1">
          <mxGeometry x="400" y="80" width="100" height="580" as="geometry" />
        </mxCell>
        <mxCell id="7baba1c4bc27f4b0-13" value="" style="html=1;points=[];perimeter=orthogonalPerimeter;rounded=0;shadow=0;comic=0;labelBackgroundColor=none;strokeWidth=1;fontFamily=Verdana;fontSize=12;align=center;" parent="7baba1c4bc27f4b0-3" vertex="1">
          <mxGeometry x="45" y="60" width="10" height="170" as="geometry" />
        </mxCell>
        <mxCell id="7baba1c4bc27f4b0-4" value="Project Element Input" style="shape=umlLifeline;perimeter=lifelinePerimeter;whiteSpace=wrap;html=1;container=1;collapsible=0;recursiveResize=0;outlineConnect=0;rounded=1;shadow=0;comic=0;labelBackgroundColor=none;strokeWidth=1;fontFamily=Verdana;fontSize=12;align=center;" parent="1" vertex="1">
          <mxGeometry x="520" y="80" width="100" height="580" as="geometry" />
        </mxCell>
        <mxCell id="7baba1c4bc27f4b0-16" value="" style="html=1;points=[];perimeter=orthogonalPerimeter;rounded=0;shadow=0;comic=0;labelBackgroundColor=none;strokeWidth=1;fontFamily=Verdana;fontSize=12;align=center;" parent="7baba1c4bc27f4b0-4" vertex="1">
          <mxGeometry x="45" y="260" width="10" height="150" as="geometry" />
        </mxCell>
        <mxCell id="lvILhVq2ATBaAnElhLMV-13" value="&lt;font style=&quot;font-size: 10px;&quot;&gt;Project Plan selected, set project plan uuid&lt;/font&gt;" style="html=1;verticalAlign=bottom;endArrow=open;dashed=1;endSize=8;labelBackgroundColor=none;fontFamily=Verdana;fontSize=12;" edge="1" parent="7baba1c4bc27f4b0-4">
          <mxGeometry relative="1" as="geometry">
            <mxPoint x="-60" y="200" as="targetPoint" />
            <mxPoint x="175" y="200" as="sourcePoint" />
            <Array as="points">
              <mxPoint x="135" y="200" />
            </Array>
          </mxGeometry>
        </mxCell>
        <mxCell id="lvILhVq2ATBaAnElhLMV-30" value="&lt;font style=&quot;font-size: 10px;&quot;&gt;Return with OK&lt;/font&gt;" style="html=1;verticalAlign=bottom;endArrow=open;dashed=1;endSize=8;labelBackgroundColor=none;fontFamily=Verdana;fontSize=12;" edge="1" parent="7baba1c4bc27f4b0-4" source="lvILhVq2ATBaAnElhLMV-26">
          <mxGeometry relative="1" as="geometry">
            <mxPoint x="-220" y="540" as="targetPoint" />
            <mxPoint x="430" y="540" as="sourcePoint" />
            <Array as="points" />
          </mxGeometry>
        </mxCell>
        <mxCell id="7baba1c4bc27f4b0-6" value="Project Plan Select Dialog" style="shape=umlLifeline;perimeter=lifelinePerimeter;whiteSpace=wrap;html=1;container=1;collapsible=0;recursiveResize=0;outlineConnect=0;rounded=1;shadow=0;comic=0;labelBackgroundColor=none;strokeWidth=1;fontFamily=Verdana;fontSize=12;align=center;" parent="1" vertex="1">
          <mxGeometry x="650" y="80" width="100" height="580" as="geometry" />
        </mxCell>
        <mxCell id="7baba1c4bc27f4b0-28" value="" style="html=1;points=[];perimeter=orthogonalPerimeter;rounded=0;shadow=0;comic=0;labelBackgroundColor=none;strokeWidth=1;fontFamily=Verdana;fontSize=12;align=center;" parent="7baba1c4bc27f4b0-6" vertex="1">
          <mxGeometry x="45" y="130" width="10" height="100" as="geometry" />
        </mxCell>
        <mxCell id="lvILhVq2ATBaAnElhLMV-16" value="&lt;font style=&quot;font-size: 10px;&quot;&gt;Item Selected&lt;/font&gt;" style="html=1;verticalAlign=bottom;endArrow=block;labelBackgroundColor=none;fontFamily=Verdana;fontSize=12;elbow=vertical;edgeStyle=orthogonalEdgeStyle;curved=1;" edge="1" parent="7baba1c4bc27f4b0-6">
          <mxGeometry x="0.1429" y="15" relative="1" as="geometry">
            <mxPoint x="60" y="175" as="sourcePoint" />
            <mxPoint x="60" y="195" as="targetPoint" />
            <Array as="points">
              <mxPoint x="120" y="175" />
              <mxPoint x="120" y="195" />
            </Array>
            <mxPoint as="offset" />
          </mxGeometry>
        </mxCell>
        <mxCell id="7baba1c4bc27f4b0-26" value="&lt;font style=&quot;font-size: 10px;&quot;&gt;Open Project Element selection dialog&lt;/font&gt;" style="html=1;verticalAlign=bottom;endArrow=block;labelBackgroundColor=none;fontFamily=Verdana;fontSize=12;" parent="7baba1c4bc27f4b0-6" edge="1">
          <mxGeometry x="0.0083" relative="1" as="geometry">
            <mxPoint x="-70" y="350" as="sourcePoint" />
            <mxPoint x="170" y="350" as="targetPoint" />
            <mxPoint as="offset" />
          </mxGeometry>
        </mxCell>
        <mxCell id="7baba1c4bc27f4b0-7" value="Project Element Select Dialog" style="shape=umlLifeline;perimeter=lifelinePerimeter;whiteSpace=wrap;html=1;container=1;collapsible=0;recursiveResize=0;outlineConnect=0;rounded=1;shadow=0;comic=0;labelBackgroundColor=none;strokeWidth=1;fontFamily=Verdana;fontSize=12;align=center;" parent="1" vertex="1">
          <mxGeometry x="770" y="80" width="120" height="580" as="geometry" />
        </mxCell>
        <mxCell id="7baba1c4bc27f4b0-22" value="" style="html=1;points=[];perimeter=orthogonalPerimeter;rounded=0;shadow=0;comic=0;labelBackgroundColor=none;strokeWidth=1;fontFamily=Verdana;fontSize=12;align=center;" parent="7baba1c4bc27f4b0-7" vertex="1">
          <mxGeometry x="55" y="330" width="10" height="80" as="geometry" />
        </mxCell>
        <mxCell id="lvILhVq2ATBaAnElhLMV-21" value="&lt;font style=&quot;font-size: 10px;&quot;&gt;Item Selected&lt;/font&gt;" style="html=1;verticalAlign=bottom;endArrow=block;labelBackgroundColor=none;fontFamily=Verdana;fontSize=12;elbow=vertical;edgeStyle=orthogonalEdgeStyle;curved=1;" edge="1" parent="7baba1c4bc27f4b0-7">
          <mxGeometry x="0.115" y="23" relative="1" as="geometry">
            <mxPoint x="70" y="350" as="sourcePoint" />
            <mxPoint x="65" y="368" as="targetPoint" />
            <Array as="points">
              <mxPoint x="115" y="350" />
              <mxPoint x="115" y="368" />
            </Array>
            <mxPoint x="5" y="-1" as="offset" />
          </mxGeometry>
        </mxCell>
        <mxCell id="7baba1c4bc27f4b0-8" value="Project Element Table" style="shape=umlLifeline;perimeter=lifelinePerimeter;whiteSpace=wrap;html=1;container=1;collapsible=0;recursiveResize=0;outlineConnect=0;rounded=1;shadow=0;comic=0;labelBackgroundColor=none;strokeWidth=1;fontFamily=Verdana;fontSize=12;align=center;" parent="1" vertex="1">
          <mxGeometry x="100" y="80" width="110" height="590" as="geometry" />
        </mxCell>
        <mxCell id="7baba1c4bc27f4b0-9" value="" style="html=1;points=[];perimeter=orthogonalPerimeter;rounded=0;shadow=0;comic=0;labelBackgroundColor=none;strokeWidth=1;fontFamily=Verdana;fontSize=12;align=center;" parent="7baba1c4bc27f4b0-8" vertex="1">
          <mxGeometry x="45" y="100" width="10" height="460" as="geometry" />
        </mxCell>
        <mxCell id="lvILhVq2ATBaAnElhLMV-31" value="&lt;font style=&quot;font-size: 10px;&quot;&gt;Dialog close.&lt;/font&gt;" style="html=1;verticalAlign=bottom;endArrow=open;dashed=1;endSize=8;labelBackgroundColor=none;fontFamily=Verdana;fontSize=12;" edge="1" parent="7baba1c4bc27f4b0-8">
          <mxGeometry relative="1" as="geometry">
            <mxPoint x="55" y="548.57" as="targetPoint" />
            <mxPoint x="180" y="550" as="sourcePoint" />
            <Array as="points" />
          </mxGeometry>
        </mxCell>
        <mxCell id="lvILhVq2ATBaAnElhLMV-33" value="New item added to the table." style="text;html=1;align=center;verticalAlign=middle;resizable=0;points=[];autosize=1;strokeColor=none;fillColor=none;" vertex="1" parent="7baba1c4bc27f4b0-8">
          <mxGeometry x="40" y="570" width="180" height="30" as="geometry" />
        </mxCell>
        <mxCell id="7baba1c4bc27f4b0-21" value="&lt;font style=&quot;font-size: 10px;&quot;&gt;return authorized project plan list&lt;/font&gt;" style="html=1;verticalAlign=bottom;endArrow=open;dashed=1;endSize=8;labelBackgroundColor=none;fontFamily=Verdana;fontSize=12;edgeStyle=elbowEdgeStyle;elbow=vertical;" parent="1" source="7baba1c4bc27f4b0-19" edge="1">
          <mxGeometry relative="1" as="geometry">
            <mxPoint x="460" y="200" as="targetPoint" />
            <Array as="points">
              <mxPoint x="790" y="200" />
              <mxPoint x="640" y="190" />
              <mxPoint x="770" y="220" />
              <mxPoint x="840" y="223" />
              <mxPoint x="750" y="210" />
              <mxPoint x="670" y="260" />
              <mxPoint x="700" y="260" />
            </Array>
            <mxPoint as="offset" />
          </mxGeometry>
        </mxCell>
        <mxCell id="7baba1c4bc27f4b0-11" value="Click Add button" style="html=1;verticalAlign=bottom;endArrow=block;entryX=0;entryY=0;labelBackgroundColor=none;fontFamily=Verdana;fontSize=12;edgeStyle=elbowEdgeStyle;elbow=vertical;" parent="1" source="7baba1c4bc27f4b0-9" target="7baba1c4bc27f4b0-10" edge="1">
          <mxGeometry relative="1" as="geometry">
            <mxPoint x="220" y="190" as="sourcePoint" />
          </mxGeometry>
        </mxCell>
        <mxCell id="7baba1c4bc27f4b0-43" value="Reuse control ProjectElementInput" style="shape=note;whiteSpace=wrap;html=1;size=14;verticalAlign=top;align=center;spacingTop=-6;rounded=0;shadow=0;comic=0;labelBackgroundColor=none;strokeWidth=1;fontFamily=Verdana;fontSize=12" parent="1" vertex="1">
          <mxGeometry x="400" y="32.5" width="210" height="37.5" as="geometry" />
        </mxCell>
        <mxCell id="7baba1c4bc27f4b0-44" value="&lt;h3&gt;&lt;font style=&quot;font-size: 14px;&quot;&gt;Backend services&lt;/font&gt;&lt;/h3&gt;" style="shape=note;whiteSpace=wrap;html=1;size=14;verticalAlign=top;align=center;spacingTop=-6;rounded=0;shadow=0;comic=0;labelBackgroundColor=none;strokeWidth=1;fontFamily=Verdana;fontSize=12" parent="1" vertex="1">
          <mxGeometry x="900" y="30" width="200" height="40" as="geometry" />
        </mxCell>
        <mxCell id="7baba1c4bc27f4b0-46" value="Resue fragment ProjectElementSelectDialog" style="shape=note;whiteSpace=wrap;html=1;size=14;verticalAlign=top;align=center;spacingTop=-6;rounded=0;shadow=0;comic=0;labelBackgroundColor=none;strokeWidth=1;fontFamily=Verdana;fontSize=12" parent="1" vertex="1">
          <mxGeometry x="650" y="32.5" width="240" height="37.5" as="geometry" />
        </mxCell>
        <mxCell id="lvILhVq2ATBaAnElhLMV-5" value="Send request with projectUuid" style="html=1;verticalAlign=bottom;endArrow=block;labelBackgroundColor=none;fontFamily=Verdana;fontSize=12;edgeStyle=elbowEdgeStyle;elbow=vertical;" edge="1" parent="1">
          <mxGeometry relative="1" as="geometry">
            <mxPoint x="460" y="160" as="sourcePoint" />
            <mxPoint x="940" y="160" as="targetPoint" />
            <Array as="points">
              <mxPoint x="720" y="160" />
              <mxPoint x="870" y="170" />
              <mxPoint x="720" y="170" />
            </Array>
          </mxGeometry>
        </mxCell>
        <mxCell id="7baba1c4bc27f4b0-14" value="&lt;font style=&quot;font-size: 10px;&quot;&gt;Click Project Plan Value help&lt;/font&gt;" style="html=1;verticalAlign=bottom;endArrow=block;labelBackgroundColor=none;fontFamily=Verdana;fontSize=12;edgeStyle=elbowEdgeStyle;elbow=vertical;" parent="1" edge="1">
          <mxGeometry x="-0.0001" relative="1" as="geometry">
            <mxPoint x="460" y="143" as="sourcePoint" />
            <mxPoint x="940" y="143" as="targetPoint" />
            <Array as="points">
              <mxPoint x="760" y="143" />
              <mxPoint x="980" y="180" />
            </Array>
            <mxPoint as="offset" />
          </mxGeometry>
        </mxCell>
        <mxCell id="lvILhVq2ATBaAnElhLMV-9" value="&lt;font style=&quot;font-size: 10px;&quot;&gt;Load project plan input control&lt;/font&gt;" style="html=1;verticalAlign=bottom;endArrow=block;labelBackgroundColor=none;fontFamily=Verdana;fontSize=12;edgeStyle=elbowEdgeStyle;elbow=vertical;" edge="1" parent="1">
          <mxGeometry x="0.1717" y="7" relative="1" as="geometry">
            <mxPoint x="300" y="227" as="sourcePoint" />
            <mxPoint x="440" y="227" as="targetPoint" />
            <Array as="points">
              <mxPoint x="400" y="227" />
              <mxPoint x="420" y="227" />
            </Array>
            <mxPoint as="offset" />
          </mxGeometry>
        </mxCell>
        <mxCell id="lvILhVq2ATBaAnElhLMV-10" value="&lt;font style=&quot;font-size: 10px;&quot;&gt;Load project element input control&lt;/font&gt;" style="html=1;verticalAlign=bottom;endArrow=block;labelBackgroundColor=none;fontFamily=Verdana;fontSize=12;edgeStyle=elbowEdgeStyle;elbow=vertical;" edge="1" parent="1">
          <mxGeometry x="-0.2308" relative="1" as="geometry">
            <mxPoint x="300" y="350" as="sourcePoint" />
            <mxPoint x="560" y="350" as="targetPoint" />
            <Array as="points">
              <mxPoint x="440" y="350" />
              <mxPoint x="330" y="310" />
              <mxPoint x="430" y="237" />
            </Array>
            <mxPoint as="offset" />
          </mxGeometry>
        </mxCell>
        <mxCell id="7baba1c4bc27f4b0-17" value="&lt;font style=&quot;font-size: 10px;&quot;&gt;Click Project element Value help&lt;/font&gt;" style="html=1;verticalAlign=bottom;endArrow=block;labelBackgroundColor=none;fontFamily=Verdana;fontSize=12;edgeStyle=elbowEdgeStyle;elbow=vertical;" parent="1" edge="1">
          <mxGeometry x="-0.112" y="1" relative="1" as="geometry">
            <mxPoint x="580" y="350" as="sourcePoint" />
            <Array as="points">
              <mxPoint x="580" y="350" />
              <mxPoint x="660" y="280" />
              <mxPoint x="400" y="410" />
              <mxPoint x="290" y="400" />
            </Array>
            <mxPoint x="940" y="350" as="targetPoint" />
            <mxPoint x="1" as="offset" />
          </mxGeometry>
        </mxCell>
        <mxCell id="lvILhVq2ATBaAnElhLMV-11" value="&lt;font style=&quot;font-size: 10px;&quot;&gt;Open Project Plan selection dialog&lt;/font&gt;" style="html=1;verticalAlign=bottom;endArrow=block;labelBackgroundColor=none;fontFamily=Verdana;fontSize=12;edgeStyle=elbowEdgeStyle;elbow=horizontal;" edge="1" parent="1" target="7baba1c4bc27f4b0-6">
          <mxGeometry x="-0.1209" relative="1" as="geometry">
            <mxPoint x="460" y="240" as="sourcePoint" />
            <mxPoint x="740" y="200" as="targetPoint" />
            <Array as="points">
              <mxPoint x="500" y="240" />
              <mxPoint x="550" y="200" />
            </Array>
            <mxPoint as="offset" />
          </mxGeometry>
        </mxCell>
        <mxCell id="7baba1c4bc27f4b0-5" value="copin-project-service" style="shape=umlLifeline;perimeter=lifelinePerimeter;whiteSpace=wrap;html=1;container=1;collapsible=0;recursiveResize=0;outlineConnect=0;rounded=1;shadow=0;comic=0;labelBackgroundColor=none;strokeWidth=1;fontFamily=Verdana;fontSize=12;align=center;" parent="1" vertex="1">
          <mxGeometry x="900" y="80" width="100" height="580" as="geometry" />
        </mxCell>
        <mxCell id="7baba1c4bc27f4b0-19" value="" style="html=1;points=[];perimeter=orthogonalPerimeter;rounded=0;shadow=0;comic=0;labelBackgroundColor=none;strokeWidth=1;fontFamily=Verdana;fontSize=12;align=center;" parent="7baba1c4bc27f4b0-5" vertex="1">
          <mxGeometry x="45" y="50" width="10" height="440" as="geometry" />
        </mxCell>
        <mxCell id="lvILhVq2ATBaAnElhLMV-17" value="&lt;font style=&quot;font-size: 10px;&quot;&gt;Send requets with Project plan uuid&amp;nbsp;&lt;/font&gt;" style="html=1;verticalAlign=bottom;endArrow=block;labelBackgroundColor=none;fontFamily=Verdana;fontSize=12;edgeStyle=elbowEdgeStyle;elbow=vertical;" edge="1" parent="1">
          <mxGeometry x="-0.0278" relative="1" as="geometry">
            <mxPoint x="580" y="370" as="sourcePoint" />
            <Array as="points">
              <mxPoint x="810" y="370" />
              <mxPoint x="934" y="380" />
              <mxPoint x="964" y="309" />
              <mxPoint x="704" y="439" />
              <mxPoint x="594" y="429" />
            </Array>
            <mxPoint x="940" y="370" as="targetPoint" />
            <mxPoint as="offset" />
          </mxGeometry>
        </mxCell>
        <mxCell id="lvILhVq2ATBaAnElhLMV-19" value="&lt;font style=&quot;font-size: 10px;&quot;&gt;Project element selected, set project elment uuid&lt;/font&gt;" style="html=1;verticalAlign=bottom;endArrow=open;dashed=1;endSize=8;labelBackgroundColor=none;fontFamily=Verdana;fontSize=12;" edge="1" parent="1" source="7baba1c4bc27f4b0-7" target="7baba1c4bc27f4b0-4">
          <mxGeometry relative="1" as="geometry">
            <mxPoint x="863" y="499" as="targetPoint" />
            <mxPoint x="1015" y="499" as="sourcePoint" />
            <Array as="points">
              <mxPoint x="720" y="450" />
            </Array>
          </mxGeometry>
        </mxCell>
        <mxCell id="lvILhVq2ATBaAnElhLMV-24" value="&lt;font style=&quot;font-size: 10px;&quot;&gt;Fire projectElementSelected event&lt;/font&gt;" style="html=1;verticalAlign=bottom;endArrow=open;dashed=1;endSize=8;labelBackgroundColor=none;fontFamily=Verdana;fontSize=12;" edge="1" parent="1" source="7baba1c4bc27f4b0-4">
          <mxGeometry relative="1" as="geometry">
            <mxPoint x="300" y="450" as="targetPoint" />
            <mxPoint x="857" y="480" as="sourcePoint" />
            <Array as="points">
              <mxPoint x="420" y="450" />
            </Array>
          </mxGeometry>
        </mxCell>
        <mxCell id="lvILhVq2ATBaAnElhLMV-20" value="&lt;font style=&quot;font-size: 10px;&quot;&gt;Send request for Retriving Project Element details&lt;/font&gt;" style="html=1;verticalAlign=bottom;endArrow=block;labelBackgroundColor=none;fontFamily=Verdana;fontSize=12;" edge="1" parent="1">
          <mxGeometry relative="1" as="geometry">
            <mxPoint x="300" y="520" as="sourcePoint" />
            <mxPoint x="940" y="520" as="targetPoint" />
            <Array as="points">
              <mxPoint x="630" y="520" />
              <mxPoint x="710" y="520" />
            </Array>
          </mxGeometry>
        </mxCell>
        <mxCell id="lvILhVq2ATBaAnElhLMV-22" value="&lt;font style=&quot;font-size: 10px;&quot;&gt;Return project element business data&lt;/font&gt;" style="html=1;verticalAlign=bottom;endArrow=open;dashed=1;endSize=8;labelBackgroundColor=none;fontFamily=Verdana;fontSize=12;" edge="1" parent="1">
          <mxGeometry relative="1" as="geometry">
            <mxPoint x="300" y="550" as="targetPoint" />
            <mxPoint x="950" y="550" as="sourcePoint" />
            <Array as="points" />
          </mxGeometry>
        </mxCell>
        <mxCell id="lvILhVq2ATBaAnElhLMV-26" value="copin-reference-service" style="shape=umlLifeline;perimeter=lifelinePerimeter;whiteSpace=wrap;html=1;container=1;collapsible=0;recursiveResize=0;outlineConnect=0;rounded=1;shadow=0;comic=0;labelBackgroundColor=none;strokeWidth=1;fontFamily=Verdana;fontSize=12;align=center;" vertex="1" parent="1">
          <mxGeometry x="1010" y="80" width="100" height="580" as="geometry" />
        </mxCell>
        <mxCell id="lvILhVq2ATBaAnElhLMV-27" value="" style="html=1;points=[];perimeter=orthogonalPerimeter;rounded=0;shadow=0;comic=0;labelBackgroundColor=none;strokeWidth=1;fontFamily=Verdana;fontSize=12;align=center;" vertex="1" parent="lvILhVq2ATBaAnElhLMV-26">
          <mxGeometry x="45" y="50" width="10" height="530" as="geometry" />
        </mxCell>
        <mxCell id="lvILhVq2ATBaAnElhLMV-28" value="&lt;font style=&quot;font-size: 10px;&quot;&gt;Click Add button, Send request to create new reference&lt;/font&gt;" style="html=1;verticalAlign=bottom;endArrow=block;labelBackgroundColor=none;fontFamily=Verdana;fontSize=12;entryX=-0.367;entryY=0.869;entryDx=0;entryDy=0;entryPerimeter=0;" edge="1" parent="1" target="lvILhVq2ATBaAnElhLMV-27">
          <mxGeometry relative="1" as="geometry">
            <mxPoint x="300" y="590" as="sourcePoint" />
            <mxPoint x="1060" y="590" as="targetPoint" />
            <Array as="points">
              <mxPoint x="440" y="590" />
              <mxPoint x="640" y="590" />
              <mxPoint x="1040" y="590" />
            </Array>
          </mxGeometry>
        </mxCell>
        <mxCell id="lvILhVq2ATBaAnElhLMV-36" value="&lt;font style=&quot;font-size: 10px;&quot;&gt;return authorized project element list&lt;/font&gt;" style="html=1;verticalAlign=bottom;endArrow=open;dashed=1;endSize=8;labelBackgroundColor=none;fontFamily=Verdana;fontSize=12;edgeStyle=elbowEdgeStyle;elbow=vertical;" edge="1" parent="1" target="7baba1c4bc27f4b0-4">
          <mxGeometry relative="1" as="geometry">
            <mxPoint x="477.5" y="390" as="targetPoint" />
            <Array as="points">
              <mxPoint x="750" y="400" />
              <mxPoint x="807.5" y="390" />
              <mxPoint x="657.5" y="380" />
              <mxPoint x="787.5" y="410" />
              <mxPoint x="857.5" y="413" />
              <mxPoint x="767.5" y="400" />
              <mxPoint x="687.5" y="450" />
              <mxPoint x="717.5" y="450" />
            </Array>
            <mxPoint x="940" y="400" as="sourcePoint" />
            <mxPoint as="offset" />
          </mxGeometry>
        </mxCell>
        <mxCell id="lvILhVq2ATBaAnElhLMV-37" style="edgeStyle=orthogonalEdgeStyle;rounded=0;orthogonalLoop=1;jettySize=auto;html=1;exitX=0.5;exitY=1;exitDx=0;exitDy=0;exitPerimeter=0;" edge="1" parent="1" source="7baba1c4bc27f4b0-43" target="7baba1c4bc27f4b0-43">
          <mxGeometry relative="1" as="geometry" />
        </mxCell>
      </root>
    </mxGraphModel>
  </diagram>
</mxfile>
